<?xml version="1.0" standalone="no"?><!DOCTYPE svg PUBLIC "-//W3C//DTD SVG 1.1//EN" "http://www.w3.org/Graphics/SVG/1.1/DTD/svg11.dtd"><svg t="1669201789635" class="icon" viewBox="0 0 1024 1024" version="1.1" xmlns="http://www.w3.org/2000/svg" p-id="18359" xmlns:xlink="http://www.w3.org/1999/xlink" width="64" height="64"><path d="M268.288 755.712c-68.096 0-121.856-53.76-121.856-121.856S200.192 512 268.288 512c9.728 0 19.456 0 29.184 5.12 0-19.456-5.12-34.304-5.12-53.76 0-107.008 87.552-195.072 195.072-195.072s195.072 87.552 195.072 195.072v9.728c14.848-5.12 29.184-9.728 48.64-9.728 46.08 0 86.016 19.456 112.64 51.2h112.64c-32.768-80.384-105.472-138.24-190.976-148.992-38.912-112.128-151.04-195.072-278.016-195.072-151.04 0-272.896 112.128-292.352 253.44-82.944 29.184-146.432 112.128-146.432 209.408 0 121.856 97.28 219.136 219.136 219.136h256v-97.28H268.288z" fill="#2D515E" p-id="18360" data-spm-anchor-id="a313x.7781069.0.i38" class=""></path><path d="M743.424 818.688L668.16 732.16c-31.744-36.352-31.744-95.232 0-131.584 31.744-36.352 82.944-36.352 114.176 0l75.264 86.528c31.744 36.352 31.744 95.232 0 131.584-31.232 36.352-82.432 36.352-114.176 0z" fill="#3FE699" p-id="18361" data-spm-anchor-id="a313x.7781069.0.i40" class=""></path><path d="M857.6 818.688l75.264-86.528c31.744-36.352 31.744-95.232 0-131.584-31.744-36.352-82.944-36.352-114.176 0l-75.264 86.528c-31.744 36.352-31.744 95.232 0 131.584 31.744 36.352 82.944 36.352 114.176 0z" fill="#3FE699" p-id="18362" data-spm-anchor-id="a313x.7781069.0.i39" class=""></path></svg>