<?xml version="1.0" standalone="no"?><!DOCTYPE svg PUBLIC "-//W3C//DTD SVG 1.1//EN" "http://www.w3.org/Graphics/SVG/1.1/DTD/svg11.dtd"><svg t="1669201663183" class="icon" viewBox="0 0 1024 1024" version="1.1" xmlns="http://www.w3.org/2000/svg" p-id="16605" data-spm-anchor-id="a313x.7781069.0.i32" xmlns:xlink="http://www.w3.org/1999/xlink" width="64" height="64"><path d="M224.9 826.7l-69.6-81.8c-4.2-4.9-3.6-12.3 1.3-16.5l626-532.3c4.9-4.2 12.3-3.6 16.5 1.3l69.6 81.8c4.2 4.9 3.6 12.3-1.3 16.5L241.3 828c-4.9 4.2-12.2 3.6-16.4-1.3z" fill="#3FE699" p-id="16606" data-spm-anchor-id="a313x.7781069.0.i34" class=""></path><path d="M859 145.4v733.1h-87.6V145.4H859m12.9-78.3H758.4c-36.1 0-65.4 29.3-65.4 65.4v759c0 36.1 29.3 65.4 65.4 65.4h113.5c36.1 0 65.4-29.3 65.4-65.4v-759c0-36.1-29.3-65.4-65.4-65.4zM252.7 634.5v244H165v-244h87.7m12.9-78.3H152.1c-36.1 0-65.4 29.3-65.4 65.4v269.9c0 36.1 29.3 65.4 65.4 65.4h113.5c36.1 0 65.4-29.3 65.4-65.4V621.6c0-36.1-29.3-65.4-65.4-65.4zM542.2 304.5v574h-87.6v-574h87.6m13-78.3H441.7c-36.1 0-65.4 29.3-65.4 65.4v599.9c0 36.1 29.3 65.4 65.4 65.4h113.5c36.1 0 65.4-29.3 65.4-65.4V291.6c0-36.1-29.3-65.4-65.4-65.4z" fill="#2D515E" p-id="16607" data-spm-anchor-id="a313x.7781069.0.i33" class="selected"></path></svg>